<mxfile host="app.diagrams.net" modified="2024-03-18T11:45:51.724Z" agent="Mozilla/5.0 (Windows NT 10.0; Win64; x64) AppleWebKit/537.36 (KHTML, like Gecko) Chrome/122.0.0.0 Safari/537.36 Edg/122.0.0.0" version="24.0.7" etag="1onLoQ86P-QD6_H-9Uk5" type="github">
  <diagram name="Seite-1" id="Z0sNDUl_zVMcKfLb87KV">
    <mxGraphModel>
      <root>
        <mxCell id="0" />
        <mxCell id="1" parent="0" />
      </root>
    </mxGraphModel>
  </diagram>
</mxfile>
